<svg xmlns="http://www.w3.org/2000/svg" xmlns:xlink="http://www.w3.org/1999/xlink" width="400" zoomAndPan="magnify" viewBox="0 0 300 74.999997" height="100" preserveAspectRatio="xMidYMid meet" version="1.0"><defs><g/></defs><g fill="#377dff" fill-opacity="1"><g transform="translate(1.572308, 61.378651)"><g><path d="M 13.210938 -9.246094 L 13.210938 -42.027344 L 3.601562 -42.027344 L 3.601562 0 L 28.21875 0 L 28.21875 -9.246094 Z M 13.210938 -9.246094 "/></g></g></g><g fill="#377dff" fill-opacity="1"><g transform="translate(30.387174, 61.378651)"><g><path d="M 3.601562 -42.027344 L 3.601562 0 L 13.210938 0 L 13.210938 -42.027344 Z M 3.601562 -42.027344 "/></g></g></g><g fill="#377dff" fill-opacity="1"><g transform="translate(47.195846, 61.378651)"><g><path d="M 27.019531 -42.027344 L 27.019531 -19.214844 L 10.808594 -42.027344 L 3.601562 -42.027344 L 3.601562 0 L 13.210938 0 L 13.210938 -22.816406 L 29.421875 0 L 36.625 0 L 36.625 -42.027344 Z M 27.019531 -42.027344 "/></g></g></g><g fill="#377dff" fill-opacity="1"><g transform="translate(87.41662, 61.378651)"><g><path d="M 45.210938 -23.417969 L 24.136719 -23.417969 L 24.136719 -15.011719 L 35.363281 -15.011719 C 33.863281 -10.988281 30.199219 -8.527344 24.617188 -8.527344 C 16.453125 -8.527344 11.40625 -13.75 11.40625 -20.894531 C 11.40625 -28.28125 16.691406 -33.503906 23.777344 -33.503906 C 28.519531 -33.503906 32.300781 -31.339844 34.042969 -28.578125 L 42.207031 -33.261719 C 38.667969 -38.90625 31.882812 -42.871094 23.835938 -42.871094 C 11.46875 -42.871094 1.800781 -33.144531 1.800781 -20.953125 C 1.800781 -8.886719 11.289062 0.839844 24.496094 0.839844 C 36.265625 0.839844 45.210938 -6.964844 45.210938 -19.8125 Z M 45.210938 -23.417969 "/></g></g></g><g fill="#377dff" fill-opacity="1"><g transform="translate(134.420881, 61.378651)"><g><path d="M 23.65625 0.839844 C 35.722656 0.839844 45.511719 -8.644531 45.511719 -21.015625 C 45.511719 -33.382812 35.722656 -42.871094 23.65625 -42.871094 C 11.589844 -42.871094 1.800781 -33.382812 1.800781 -21.015625 C 1.800781 -8.644531 11.589844 0.839844 23.65625 0.839844 Z M 23.65625 -8.527344 C 16.8125 -8.527344 11.40625 -13.507812 11.40625 -21.015625 C 11.40625 -28.519531 16.8125 -33.503906 23.65625 -33.503906 C 30.5 -33.503906 35.90625 -28.519531 35.90625 -21.015625 C 35.90625 -13.507812 30.5 -8.527344 23.65625 -8.527344 Z M 23.65625 -8.527344 "/></g></g></g><g fill="#377dff" fill-opacity="1"><g transform="translate(181.725286, 61.378651)"><g><path d="M 29.660156 -21.796875 C 31.941406 -23.777344 33.324219 -26.539062 33.324219 -30.019531 C 33.324219 -37.285156 27.378906 -42.027344 20.054688 -42.027344 L 3.601562 -42.027344 L 3.601562 0 L 21.253906 0 C 28.757812 0 34.824219 -4.863281 34.824219 -12.308594 C 34.824219 -16.570312 32.78125 -19.8125 29.660156 -21.796875 Z M 20.054688 -33.023438 C 22.273438 -33.023438 23.714844 -31.460938 23.714844 -29.300781 C 23.714844 -27.136719 22.214844 -25.578125 20.054688 -25.578125 L 13.210938 -25.578125 L 13.210938 -33.023438 Z M 21.253906 -9.007812 L 13.210938 -9.007812 L 13.210938 -17.050781 L 21.253906 -17.050781 C 23.65625 -17.050781 25.21875 -15.371094 25.21875 -13.027344 C 25.21875 -10.6875 23.65625 -9.007812 21.253906 -9.007812 Z M 21.253906 -9.007812 "/></g></g></g><g fill="#377dff" fill-opacity="1"><g transform="translate(217.743868, 61.378651)"><g><path d="M 23.65625 0.839844 C 35.722656 0.839844 45.511719 -8.644531 45.511719 -21.015625 C 45.511719 -33.382812 35.722656 -42.871094 23.65625 -42.871094 C 11.589844 -42.871094 1.800781 -33.382812 1.800781 -21.015625 C 1.800781 -8.644531 11.589844 0.839844 23.65625 0.839844 Z M 23.65625 -8.527344 C 16.8125 -8.527344 11.40625 -13.507812 11.40625 -21.015625 C 11.40625 -28.519531 16.8125 -33.503906 23.65625 -33.503906 C 30.5 -33.503906 35.90625 -28.519531 35.90625 -21.015625 C 35.90625 -13.507812 30.5 -8.527344 23.65625 -8.527344 Z M 23.65625 -8.527344 "/></g></g></g><g fill="#377dff" fill-opacity="1"><g transform="translate(265.048273, 61.378651)"><g><path d="M 31.820312 -42.027344 L 0.601562 -42.027344 L 0.601562 -32.78125 L 11.40625 -32.78125 L 11.40625 0 L 21.015625 0 L 21.015625 -32.78125 L 31.820312 -32.78125 Z M 31.820312 -42.027344 "/></g></g></g></svg>